<svg width="41" height="34" viewBox="0 0 41 34" fill="none" xmlns="http://www.w3.org/2000/svg">
<path d="M1.41094 33.9343H39.7527C39.9891 33.9343 40.2159 33.8404 40.3832 33.6731C40.5504 33.5059 40.6443 33.2791 40.6443 33.0426V31.4867C40.6443 31.2502 40.5504 31.0234 40.3832 30.8562C40.2159 30.6889 39.9891 30.595 39.7527 30.595H35.6287V18.8874C36.0821 18.859 36.5075 18.6587 36.8182 18.3273C37.1289 17.9958 37.3015 17.5583 37.3006 17.1041V13.8495C39.4317 13.6533 39.5654 12.4808 37.4744 11.0719L36.9617 10.7242L36.8547 10.6484L21.9639 0.577008C21.5468 0.325324 21.0689 0.192307 20.5818 0.192307C20.0947 0.192307 19.6168 0.325324 19.1997 0.577008L3.67578 11.0675C1.5759 12.4852 1.71411 13.6533 3.86303 13.8495V17.1085C3.86214 17.5628 4.03465 18.0003 4.34535 18.3317C4.65605 18.6631 5.08151 18.8635 5.5349 18.8919V30.5905H1.41094C1.17445 30.5905 0.947654 30.6845 0.780434 30.8517C0.613214 31.0189 0.519271 31.2457 0.519271 31.4822V33.0337C0.518092 33.1516 0.540286 33.2685 0.584568 33.3777C0.628851 33.4869 0.694344 33.5862 0.777261 33.67C0.860177 33.7537 0.958872 33.8202 1.06764 33.8656C1.17641 33.9109 1.29309 33.9343 1.41094 33.9343ZM12.218 30.5905H8.8742V18.8874H12.218V30.5905ZM25.593 30.5905H22.2492V24.7947C22.2492 24.5582 22.1553 24.3314 21.9881 24.1642C21.8208 23.997 21.594 23.903 21.3575 23.903H19.806C19.5696 23.903 19.3428 23.997 19.1755 24.1642C19.0083 24.3314 18.9144 24.5582 18.9144 24.7947V30.5905H15.5706V18.8874H25.6019L25.593 30.5905ZM32.2805 30.5905H28.9367V18.8874H32.2805V30.5905ZM20.5818 3.69784L30.6086 10.528H22.2537V8.07593C22.2537 7.83945 22.1597 7.61265 21.9925 7.44543C21.8253 7.27821 21.5985 7.18427 21.362 7.18427H19.806C19.5696 7.18427 19.3428 7.27821 19.1755 7.44543C19.0083 7.61265 18.9144 7.83945 18.9144 8.07593V10.5325H10.555L20.5818 3.69784ZM7.20678 13.8718H33.9568V15.5437H7.20678V13.8718Z" fill="black"/>
</svg>
