<svg width="44" height="45" viewBox="0 0 44 45" fill="none" xmlns="http://www.w3.org/2000/svg">
<path fill-rule="evenodd" clip-rule="evenodd" d="M19.8146 13.3086C19.9056 12.8386 20.3106 12.5 20.7844 12.5H23.7712C24.245 12.5 24.65 12.8386 24.741 13.3086L25.0713 15.0235C25.8828 15.3337 26.6341 15.7658 27.2931 16.3125L28.9197 15.7461C29.3678 15.5911 29.8618 15.7784 30.0982 16.1934L31.5896 18.8067C31.8261 19.2217 31.74 19.7485 31.3829 20.0625L30.0789 21.209C30.1467 21.6304 30.1909 22.0593 30.1909 22.5001C30.1909 22.9408 30.1467 23.3697 30.0789 23.7911L31.3829 24.9376C31.74 25.2516 31.8261 25.7765 31.5896 26.1915L30.0982 28.8067C29.8608 29.2217 29.3678 29.4081 28.9197 29.2521L27.2931 28.6857C26.6339 29.2327 25.8832 29.6663 25.0713 29.9767L24.741 31.6915C24.65 32.1615 24.245 32.5001 23.7712 32.5001H20.7844C20.3106 32.5001 19.9056 32.1615 19.8146 31.6915L19.4842 29.9767C18.6727 29.6665 17.9215 29.2343 17.2625 28.6876L15.6358 29.254C15.1878 29.409 14.6938 29.2217 14.4574 28.8067L12.9659 26.1934C12.7295 25.7784 12.8156 25.2516 13.1726 24.9376L14.4767 23.7911C14.4089 23.3697 14.3646 22.9408 14.3646 22.5001C14.3646 22.0593 14.4089 21.6304 14.4767 21.209L13.1726 20.0625C12.8156 19.7485 12.7295 19.2217 12.9659 18.8067L14.4574 16.1934C14.6948 15.7794 15.1878 15.5921 15.6358 15.7481L17.2625 16.3145C17.9217 15.7674 18.6724 15.3338 19.4842 15.0235L19.8146 13.3086ZM26.2348 22.4997C26.2348 20.2907 24.4633 18.4997 22.2782 18.4997C20.0932 18.4997 18.3217 20.2907 18.3217 22.4997C18.3217 24.7087 20.0932 26.4997 22.2782 26.4997C24.4633 26.4997 26.2348 24.7087 26.2348 22.4997Z" fill="#919191"/>
</svg>
