<svg width="36" height="37" viewBox="0 0 36 37" fill="none" xmlns="http://www.w3.org/2000/svg">
<path d="M17.5977 36.0977C27.3594 36.0977 35.1787 28.2617 35.1787 18.5C35.1787 8.73828 27.3594 0.902344 17.5977 0.902344C16.3027 0.902344 15.4561 1.66602 15.4561 2.91113V8.42285C15.4561 9.50195 16.2197 10.3154 17.2988 10.3154C18.3613 10.3154 19.125 9.50195 19.125 8.42285V5.40137C25.666 6.18164 30.6631 11.7432 30.6631 18.5C30.6631 25.7051 24.8691 31.582 17.5977 31.582C10.3262 31.582 4.51562 25.7051 4.51562 18.5C4.53223 15.5947 5.51172 12.8389 7.15527 10.6475C8.01855 9.38574 8.23438 8.27344 7.20508 7.29395C6.22559 6.36426 4.64844 6.48047 3.65234 7.8584C1.39453 10.8135 0 14.5156 0 18.5C0 28.2617 7.81934 36.0977 17.5977 36.0977ZM20.2705 21.3389C21.7646 19.7949 21.4492 17.6367 19.7061 16.4912L11.9199 11.3115C10.625 10.4648 9.44629 11.6602 10.293 12.9551L15.4561 20.7246C16.6016 22.4678 18.7598 22.7998 20.2705 21.3389Z" fill="black"/>
</svg>
