<svg width="375" height="22" viewBox="0 0 375 22" fill="none" xmlns="http://www.w3.org/2000/svg">
<path d="M-13 11C0.333333 -2.33333 13.6667 -2.33333 27 11C40.3333 24.3333 53.6667 24.3333 67 11C80.3333 -2.33333 93.6667 -2.33333 107 11C120.333 24.3333 133.667 24.3333 147 11C160.333 -2.33333 173.667 -2.33333 187 11C200.333 24.3333 213.667 24.3333 227 11C240.333 -2.33333 253.667 -2.33333 267 11C280.333 24.3333 293.667 24.3333 307 11C320.333 -2.33333 333.667 -2.33333 347 11C360.333 24.3333 373.667 24.3333 387 11" stroke="black" stroke-opacity="0.11" stroke-width="2"/>
</svg>
