<svg width="18" height="19" viewBox="0 0 18 19" fill="none" xmlns="http://www.w3.org/2000/svg">
<path d="M4.28138 16.4028H5.94033C6.08119 16.4028 6.17509 16.4341 6.28464 16.5437L7.45843 17.7175C8.49918 18.7661 9.49299 18.7582 10.5416 17.7175L11.7154 16.5437C11.8249 16.4341 11.9188 16.4028 12.0597 16.4028H13.7186C15.1976 16.4028 15.9019 15.6986 15.9019 14.2196V12.5606C15.9019 12.4198 15.941 12.3181 16.0427 12.2163L17.2165 11.0347C18.2651 9.99397 18.2573 9.00016 17.2165 7.95941L16.0427 6.78562C15.941 6.67607 15.9019 6.58217 15.9019 6.44131V4.78236C15.9019 3.30339 15.1976 2.59912 13.7186 2.59912H12.0597C11.9188 2.59912 11.8171 2.56 11.7154 2.45827L10.5416 1.28448C9.49299 0.235903 8.49918 0.235903 7.45843 1.29231L6.28464 2.45827C6.18292 2.56 6.08119 2.59912 5.94033 2.59912H4.28138C2.80241 2.59912 2.09814 3.28774 2.09814 4.78236V6.44131C2.09814 6.58217 2.05902 6.6839 1.95729 6.78562L0.783504 7.95941C-0.265077 9.00016 -0.257252 9.99397 0.783504 11.0347L1.95729 12.2163C2.05902 12.3181 2.09814 12.4198 2.09814 12.5606V14.2196C2.09814 15.6986 2.80241 16.4028 4.28138 16.4028ZM8.1314 13.3979C7.81056 13.3979 7.55233 13.2493 7.31757 12.9597L5.43952 10.6982C5.27519 10.5026 5.20476 10.307 5.20476 10.0957C5.20476 9.64966 5.56472 9.29752 6.00293 9.29752C6.26899 9.29752 6.47245 9.39925 6.67591 9.64966L8.10792 11.4416L11.2537 6.43349C11.4415 6.13613 11.6762 5.97962 11.9579 5.97962C12.3883 5.97962 12.7796 6.29263 12.7796 6.73867C12.7796 6.92648 12.6935 7.12993 12.5683 7.31774L8.92175 12.9519C8.72612 13.2336 8.45223 13.3979 8.1314 13.3979Z" fill="white"/>
</svg>
