<svg width="46" height="40" viewBox="0 0 46 40" fill="none" xmlns="http://www.w3.org/2000/svg">
<path d="M18.7021 0.269228C18.3383 0.269111 17.9814 0.368458 17.6701 0.556621C17.3587 0.744784 17.1048 1.01457 16.9358 1.3367C16.7668 1.65882 16.6891 2.02105 16.7112 2.38415C16.7332 2.74726 16.8542 3.09742 17.0611 3.39669C17.7831 4.47842 17.7983 4.95308 17.7601 5.25844C17.722 5.564 17.5295 5.92901 17.1052 6.54622C16.6809 7.16351 15.9862 8.00326 15.7733 9.34251C15.5603 10.6818 16.0752 12.2027 17.1641 13.5591C17.4949 13.9719 17.9761 14.2363 18.5019 14.2943C19.0277 14.3522 19.555 14.199 19.9678 13.8682C20.3805 13.5373 20.645 13.0561 20.703 12.5303C20.7609 12.0045 20.6076 11.4772 20.2768 11.0645C19.6119 10.2362 19.6998 10.087 19.7176 9.97534C19.7352 9.8638 19.9327 9.47723 20.3946 8.80535C20.8564 8.13342 21.5449 7.14586 21.7191 5.75148C21.8933 4.35711 21.4483 2.78245 20.3798 1.1817C20.1989 0.90137 19.9504 0.670911 19.6573 0.51149C19.3642 0.35207 19.0357 0.268791 18.7021 0.269228Z" fill="black"/>
<path d="M27.3559 0.269251C26.9927 0.270474 26.6368 0.37082 26.3265 0.55952C26.0163 0.74822 25.7634 1.01806 25.5953 1.33995C25.4271 1.66184 25.3501 2.02353 25.3725 2.386C25.3949 2.74846 25.5158 3.09796 25.7223 3.39672C26.4443 4.47845 26.4595 4.9531 26.4213 5.25846C26.3832 5.56402 26.1907 5.92903 25.7664 6.54625C25.3422 7.16353 24.6474 8.00329 24.4345 9.34254C24.2215 10.6818 24.7364 12.2027 25.8253 13.5591C26.1561 13.9719 26.6373 14.2363 27.1631 14.2943C27.6889 14.3523 28.2162 14.199 28.629 13.8682C29.0417 13.5374 29.3062 13.0561 29.3642 12.5303C29.4221 12.0045 29.2688 11.4773 28.938 11.0645C28.2731 10.2362 28.3537 10.087 28.3714 9.97536C28.3889 9.86383 28.5866 9.47725 29.0484 8.80537C29.5102 8.13345 30.1988 7.14588 30.373 5.7515C30.5472 4.35713 30.1095 2.78248 29.041 1.18173C28.8594 0.900341 28.6098 0.66923 28.3153 0.509753C28.0208 0.350276 27.6908 0.267578 27.3559 0.269251Z" fill="black"/>
<path d="M8.62791 16.0382C8.62791 18.0229 8.62791 20.0074 8.62791 21.9921C8.62791 24.537 9.64124 27.4267 11.6224 29.9027C13.6035 32.3788 16.7323 34.3925 20.6818 34.3925H25.0158C28.9459 34.3925 32.141 32.4731 34.2445 30.0351C34.2474 30.0332 34.2497 30.0274 34.2524 30.0236C34.8939 30.1046 35.6073 30.1403 36.4661 29.9242C39.2751 29.2168 42.5936 27.8054 44.2229 24.6848C44.724 23.7251 45.0152 22.6342 45.0309 21.4547C45.0465 20.2752 44.7569 18.8914 43.6563 17.8626C42.6761 16.9462 41.491 16.7222 40.4185 16.7586C39.3986 16.7965 38.4007 17.0679 37.5116 17.7515V16.0362L8.62791 16.0382ZM12.6173 20.0276H33.5222V21.9921C33.5222 23.4107 32.7265 25.6918 31.2267 27.4301C29.7268 29.1684 27.675 30.4031 25.0158 30.4031H20.6818C18.0418 30.4031 16.1343 29.1644 14.7356 27.4164C13.337 25.6683 12.6173 23.3599 12.6173 21.9921V20.0276ZM40.5566 20.7402C41.1496 20.7402 41.0512 20.9497 41.0512 21.4041C41.045 21.8636 40.8707 22.4877 40.6832 22.8468C40.095 23.9733 38.5512 24.9803 36.8359 25.6271C37.217 24.5621 37.4388 23.4881 37.4882 22.4399C38.4017 22.0033 39.1821 21.5281 39.918 20.9174C40.049 20.8159 40.2567 20.7505 40.5566 20.7403L40.5566 20.7402Z" fill="black"/>
<path d="M2.16778 30.5017C-0.491818 30.5017 -0.491818 34.4366 2.16778 34.4366H6.17664C7.62332 34.4366 13.0056 35.6516 16.9435 38.9828L17.5023 39.454H28.643L29.1959 38.9828C32.1707 36.5355 35.8583 34.8465 39.9608 34.4366H43.9717C46.6312 34.4366 46.6312 30.5017 43.9717 30.5017H2.16778ZM16.9279 34.4366H29.2836C28.6628 34.8215 28.0552 35.0101 27.4514 35.4724H18.7094C18.1173 35.0131 17.5292 34.8219 16.9279 34.4366Z" fill="black"/>
</svg>
