<svg width="45" height="45" viewBox="0 0 45 45" fill="none" xmlns="http://www.w3.org/2000/svg">
<path d="M30.5193 14.5H14.6792C12.6095 14.5 11.5 15.6001 11.5 17.6512V18.4717H33.6985V17.6512C33.6985 15.6001 32.589 14.5 30.5193 14.5ZM15.453 27.7855C14.903 27.7855 14.5394 27.4126 14.5394 26.8905V25.1657C14.5394 24.6436 14.903 24.2707 15.453 24.2707H17.7372C18.2873 24.2707 18.6602 24.6436 18.6602 25.1657V26.8905C18.6602 27.4126 18.2873 27.7855 17.7372 27.7855H15.453ZM14.6792 30.8249H30.5193C32.589 30.8249 33.6985 29.7247 33.6985 27.6643V20.7092H11.5V27.6643C11.5 29.7247 12.6095 30.8249 14.6792 30.8249Z" fill="black"/>
</svg>
