<svg width="16" height="10" viewBox="0 0 16 10" fill="none" xmlns="http://www.w3.org/2000/svg">
<path d="M7.68744 9.67188C8.04437 9.67188 8.3515 9.53076 8.62543 9.25684L14.8427 2.88184C15.0585 2.66602 15.1747 2.40039 15.1747 2.08496C15.1747 1.4375 14.6601 0.922852 14.0209 0.922852C13.7055 0.922852 13.4067 1.04736 13.1743 1.27979L7.69574 6.92432L2.20892 1.27979C1.9765 1.05566 1.68597 0.922852 1.36224 0.922852C0.723083 0.922852 0.208435 1.4375 0.208435 2.08496C0.208435 2.40039 0.324646 2.66602 0.540466 2.89014L6.75775 9.25684C7.04828 9.53906 7.33881 9.67188 7.68744 9.67188Z" fill="black"/>
</svg>
