<svg width="340" height="22" viewBox="0 0 340 22" fill="none" xmlns="http://www.w3.org/2000/svg">
<path d="M-57 11C-43.6667 -2.33333 -30.3333 -2.33333 -17 11C-3.66667 24.3333 9.66667 24.3333 23 11C36.3333 -2.33333 49.6667 -2.33333 63 11C76.3333 24.3333 89.6667 24.3333 103 11C116.333 -2.33333 129.667 -2.33333 143 11C156.333 24.3333 169.667 24.3333 183 11C196.333 -2.33333 209.667 -2.33333 223 11C236.333 24.3333 249.667 24.3333 263 11C276.333 -2.33333 289.667 -2.33333 303 11C316.333 24.3333 329.667 24.3333 343 11" stroke="black" stroke-width="2"/>
<path d="M-38 11C-24.6667 -2.33333 -11.3333 -2.33333 2 11C15.3333 24.3333 28.6667 24.3333 42 11C55.3333 -2.33333 68.6667 -2.33333 82 11C95.3333 24.3333 108.667 24.3333 122 11C135.333 -2.33333 148.667 -2.33333 162 11C175.333 24.3333 188.667 24.3333 202 11C215.333 -2.33333 228.667 -2.33333 242 11C255.333 24.3333 268.667 24.3333 282 11C295.333 -2.33333 308.667 -2.33333 322 11C335.333 24.3333 348.667 24.3333 362 11" stroke="white" stroke-opacity="0.26" stroke-width="2"/>
</svg>
