<svg width="39" height="39" viewBox="0 0 39 39" fill="none" xmlns="http://www.w3.org/2000/svg">
<path d="M0.823697 27.3186L11.4312 37.9261C12.1904 38.6853 13.4224 38.6912 14.1887 37.943L0.806808 24.5611C0.0586293 25.3278 0.0645406 26.5595 0.823697 27.3186Z" fill="black"/>
<path d="M24.0456 11.4312L11.1806 24.2961L14.4534 27.5689L27.3183 14.7039L24.0456 11.4312Z" fill="black"/>
<path d="M1.65044 19.9799L1.54657 20.0838C0.558146 21.0722 0.558146 22.6805 1.54657 23.6689L1.88815 24.0105H1.88519L14.7389 36.8642V36.8617L15.0805 37.2032C16.0689 38.1917 17.6767 38.1917 18.6656 37.2028L18.7695 37.0989C19.7579 36.1105 19.7579 34.5023 18.7699 33.5139L5.23595 19.9799C4.24711 18.9915 2.63928 18.9915 1.65044 19.9799Z" fill="black"/>
<path d="M19.8338 1.79658L19.7299 1.90045C18.7415 2.88888 18.7415 4.49712 19.7299 5.48554L33.2643 19.0199C34.2527 20.0083 35.8605 20.0083 36.8494 19.0195L36.9532 18.9156C37.9417 17.9272 37.9417 16.3189 36.9536 15.3305L23.4193 1.79658C22.4305 0.808161 20.8226 0.808161 19.8338 1.79658Z" fill="black"/>
<path d="M24.3078 1.06025L37.6918 14.4401C38.4413 13.6737 38.4362 12.4408 37.6762 11.6813L27.0687 1.07376C26.3083 0.313334 25.0737 0.308689 24.3078 1.06025Z" fill="black"/>
<path d="M3.71205 35.0376C4.41336 35.7389 5.41572 36.0247 6.39359 35.8026L7.20679 35.6173L3.13234 31.5428L2.94698 32.356C2.72447 33.3339 3.01074 34.3362 3.71205 35.0376Z" fill="black"/>
<path d="M32.1063 3.197L31.2931 3.38235L35.3675 7.4568L35.5529 6.6436C35.7754 5.66573 35.4891 4.66338 34.7878 3.96207C34.0865 3.26075 33.0841 2.97449 32.1063 3.197Z" fill="black"/>
</svg>
